# xmcd CD database file
#
# Track frame offsets:
#	150
#	18960
#	39292
#	52715
#	97143
#	131753
#	154214
#	179003
#	193975
#	214958
#
# Disc length: 3155 seconds
#
# Revision: 0
# Processed by: cddbd v1.5.2PL0 Copyright (c) Steve Scherf et al.
# Submitted via: CDex 1.80
#
DISCID=8d0c510a
DTITLE=Ok Nok...Kongo - Moonstone Journey - Music of John Tchicai played by Ok Nok..Kongo
DYEAR=1999
DGENRE=Jazz
TTITLE0=Moonstone Journey
TTITLE1=Finding the Path
TTITLE2=The Frog and the Snake
TTITLE3=A Chaos With Some Kind of Order
TTITLE4=Spirals of Ruby
TTITLE5=Climbing the Mountain
TTITLE6=Hypothetis
TTITLE7=At the Lotus Lake
TTITLE8=Holy Coordinator
TTITLE9=Monk Me
EXTD=YEAR: 1999
EXTT0=
EXTT1=
EXTT2=
EXTT3=
EXTT4=
EXTT5=
EXTT6=
EXTT7=
EXTT8=
EXTT9=
PLAYORDER=
